<svg xmlns="http://www.w3.org/2000/svg" xmlns:xlink="http://www.w3.org/1999/xlink" version="1.1" x="0px" y="0px" viewBox="0 0 100 125" enable-background="new 0 0 100 100" xml:space="preserve"><g><path fill="none" d="M88.673,28.207l-0.018-0.016c-0.676-0.731-1.227-1.093-1.682-1.104c-0.47-0.012-0.849,0.355-1.288,0.782   c-0.299,0.289-0.607,0.59-0.983,0.807c-0.963,1.112-1.611,1.567-2.171,1.64c0.776,0.729,1.551,1.59,2.048,2.475   c0.335,0.337,0.983,1.022,1.494,1.775c1.466,1.295-0.407,5.288-0.407,5.288s-2.983,7.808-4.182,10.38   c-1.185,2.16-1.634,3.105-4.225,4.179c-5.661,2.195-14.043,8.903-19.458,13.657c-5.4,4.342-13.897,15.934-15.708,18.276   c-1.684,2.623-3.62,2.823-3.62,2.823s-10.579,2.906-12.873,3.438c-2.496,0.457-3.606-1.171-3.606-1.171s0,0-1.264-1.219   c0.023,0.01,0.048,0.017,0.071,0.026c-0.835-0.748-1.572-1.749-2.145-2.653c0.074,0.977-0.179,1.717-0.764,2.068   c-2.552,1.904-1.984,2.802-1.979,2.811l0.018,0.025c0.006,0.012,0.728,1.228,1.811,3.248l0.012,0.024   c0.395,0.936,0.719,1.182,0.871,1.246l3.128-2.899c0,0,0.711,0.337,1.72,0.995c1.36-0.466,9.852-0.97,11.822-1.205   c3.378,0.853,3.253,0.071,3.919-1.143c2.839-4.024,16.562-19.932,20.444-22.83c3.366-4.316,21.688-16.122,24.647-17.869   c2.095-0.747,1.63-2.107,1.63-2.107l2.71-14.259c-0.885-1.169,0.515-2.666,0.515-2.666s1.564-1.157,2.289-1.998   C90.898,30.42,89.884,29.327,88.673,28.207z"/><path fill="none" d="M17.926,85.04l0.024,0.053l0,0c0.023,0.051,1.826,3.951,3.962,5.281c0.952-0.101,2-0.634,2.784-1.176   c0.999-0.926,6.57-2.506,8.939-3.242c3.884-0.678,4.736-3.195,5.894-4.667c3.53-5.927,13.119-15.344,14.122-16.408   c1.318,1.565,2.256,2.29,2.969,1.629c0.714-0.661-0.48-1.808-1.475-2.879c6.232-6.307,15.866-11.521,17.91-12.751   c4.272-1.835,4.752-3.607,5.069-4.698c1.696-4.758,3.226-6.972,4.186-8.657c1.316-1.636,1.785-3.167,1.955-4.083   c-0.666-1.477-2.395-3-3.551-3.905c-0.152-0.101-0.314-0.204-0.493-0.302l-0.047-0.026l-0.036-0.042   c-0.055-0.064-0.109-0.126-0.163-0.187c-0.228-0.164-0.368-0.257-0.377-0.263l0.051-0.075c-2.058-1.998-4.049-1.267-5.674-0.669   c-0.253,0.094-0.493,0.181-0.72,0.253c-1.497,0.521-4.801,1.98-5.122,2.123c-0.148,0.101-0.956,0.628-3.735,2.132   c-6.863,3.238-19.027,13.718-21.352,15.824c1.183,1.406,1.453,1.866,0.919,2.841l-0.029,0.054l-0.048,0.038   c-0.844,0.65-1.6-0.257-2.151-0.919c-0.145-0.173-0.282-0.34-0.417-0.479c-4.165,2.761-13.236,13.91-17.144,18.715   c-0.63,0.773-1.128,1.387-1.419,1.732c-1.849,2.527-4.28,7.201-5.211,9.443c-1.616,3.369,0.318,5.252,0.338,5.271L17.926,85.04z"/><path fill="none" d="M10.611,52.148c0.001,0.004,0.024,0.097,0.072,0.246L10.906,53c0.282,0.675,0.776,1.563,1.521,1.949   c0.101,0.052,0.202,0.091,0.305,0.121c1.169-0.246,2.717-1.117,3.683-1.727c1.34-0.845,4.261-1.56,5.931-2.047   c3.136-0.915,3.585-1.862,4.532-3.272c4.785-6.293,12.975-13.352,14.253-14.405c1.705,2.269,1.986,2.142,2.634,1.409   c1.197-0.712-0.477-1.948-1.204-2.733c3.926-3.64,12.796-8.675,16.39-10.811c4.194-1.631,4.052-3.359,4.052-3.359   s2.721-4.511,3.548-6.34c2.782-3.113,3.61-4.243,3.734-4.965c-0.43-0.66-1.038-1.446-1.701-2.234   c-0.461-0.371-0.86-0.896-1.168-1.297c-0.059-0.078-0.112-0.15-0.163-0.215c-0.204-0.22-0.406-0.434-0.602-0.639   c-1.347-1.14-2.64-0.33-2.7-0.29l-0.077,0.05l-0.094-0.004c-0.002,0-0.524-0.003-2.098,0.425l-0.03,0.006   c-2.341,0.376-5.275,2.105-7.028,3.138c-0.156,0.092-0.303,0.179-0.44,0.26l-0.018,0.008c-5.757,2.856-12.861,8.315-16.678,11.249   c-0.913,0.701-1.634,1.256-2.108,1.599c-0.676,0.462-0.842,0.734-0.864,0.881c-0.021,0.136,0.082,0.273,0.253,0.487   c0.084,0.106,0.171,0.216,0.249,0.343c0.043,0.067,0.086,0.135,0.127,0.196c0.27,0.415,0.447,0.688,0.367,0.986   c-0.061,0.229-0.261,0.354-0.362,0.408c-0.57,0.505-0.914,0.136-1.651-0.66l-0.017-0.021c-0.396-0.521-0.528-0.533-0.534-0.533   c-0.028,0.005-0.11,0.073-0.164,0.12c-0.107,0.091-0.238,0.202-0.421,0.283c-3.521,2.371-16.597,16.304-18.008,18.092   c-1.158,1.377-2.517,3.634-4.048,6.716C8.931,48.9,9.738,49.9,9.747,49.909l0.034,0.04l0.021,0.054l0.791,2.148L10.611,52.148z"/><path fill="none" d="M76.321,3.229c-0.171-0.164-0.345-0.331-0.517-0.502l-0.012-0.011l-0.011-0.013   c-0.376-0.464-0.755-0.696-1.126-0.69c-0.541,0.011-0.934,0.528-0.937,0.533l-0.016,0.02L73.195,3.14l-0.027,0.02   c-0.188,0.135-1.813,1.283-2.61,1.527c-0.255,0.23-0.534,0.352-0.835,0.36c0.521,0.661,1,1.334,1.328,1.932   c0.175,0.146,0.332,0.286,0.419,0.379c1.797,1.653,0.756,3.679,0.756,3.679s-3.655,7.37-5.409,10.059   c-1.867,3.854-3.393,4.071-5.914,5.216c-14.364,6.412-27.417,21.827-30.297,25.161c-3.106,3.809-4.181,3.078-4.181,3.078   s-7.241,2.067-9.888,2.793c-2.583,0.937-3.666-1.378-3.666-1.378s-0.003-0.003-0.605-0.448c-0.036-0.017-0.072-0.031-0.107-0.049   c-0.572-0.296-1.012-0.812-1.337-1.345c-0.326,0.348-0.959,0.984-1.768,1.599c-0.724,0.747-0.492,1.319-0.114,2.266   c0.093,0.229,0.188,0.468,0.278,0.729c0.559,1.776,0.889,2.303,1.016,2.454c0.696-0.498,2.046-1.512,3.161-2.638   c0.519,0.846,1.909,0.485,1.909,0.485s8.076-0.451,9.522-0.465c1.498,0.47,2.446-0.941,2.446-0.941   c5.091-7.106,14.697-15.214,18.46-18.171C56.48,30.276,65.896,25.397,67.38,24.421c1.279-1.053,3.49-1.244,3.598-2.273   c-0.3-1.184-0.069-1.793-0.069-1.793s3.074-8.425,3.325-9.586c0.786-0.728,0.745-1.487,0.745-1.487   c-1.268-1.08,0.471-1.498,0.471-1.498s1.864-1.366,2.548-2.311C77.876,4.719,77.145,4.018,76.321,3.229z"/><path d="M89.077,27.785c-0.797-0.858-1.461-1.266-2.088-1.281c-0.716-0.02-1.222,0.472-1.71,0.947   c-0.284,0.275-0.576,0.559-0.906,0.74l-0.046,0.026l-0.034,0.039c-1.637,1.905-2.024,1.639-2.96,0.992   c-0.075-0.051-0.155-0.106-0.238-0.162c-0.286-0.224-0.539-0.41-0.735-0.552c-2.423-2.641-4.917-1.725-6.585-1.111   c-0.247,0.091-0.48,0.177-0.703,0.247c-1.597,0.557-5.053,2.091-5.199,2.155l-0.051,0.029c-0.007,0.005-0.684,0.479-3.687,2.104   c-7.152,3.376-19.999,14.537-21.691,16.105l-0.204,0.188l0.18,0.214c1.379,1.629,1.369,1.784,1.066,2.339   c-0.327,0.207-0.661-0.095-1.3-0.861c-0.206-0.247-0.42-0.504-0.635-0.694l-0.163-0.144l-0.186,0.113   c-4.154,2.588-13.491,14.064-17.478,18.966c-0.634,0.778-1.134,1.393-1.42,1.733l-0.013,0.015   c-1.875,2.562-4.342,7.302-5.278,9.559c-1.647,3.435,0.114,5.552,0.425,5.888c0.944,2.106,0.737,3.438,0.146,3.785l-0.026,0.019   c-1.402,1.042-2.167,1.996-2.274,2.831c-0.056,0.44,0.096,0.708,0.152,0.79c0.07,0.117,0.764,1.297,1.787,3.203   c0.393,0.928,0.811,1.441,1.273,1.576c0.349,0.805,1.636,2.493,5.747-0.998c1.742,0.376,16.125-0.215,16.125-0.215l4.43-5.102   c0,0,11.171-13.937,17.664-18.958c3.518-2.863,10.141-8.604,22.974-17.312c1.49-1.183,1.977-1.732,2.326-4.146   c0.651-2.029,1.384-9.247,2.848-13.789c0.47-1.204,1.344-2.358,2.027-3.073c0.338-1.562,0.875-1.871-0.39-2.937   C91.903,30.658,90.654,29.246,89.077,27.785z M17.547,79.73c0.931-2.242,3.362-6.916,5.211-9.443   c0.291-0.346,0.789-0.959,1.419-1.732C28.084,63.75,37.155,52.601,41.32,49.84c0.135,0.139,0.272,0.306,0.417,0.479   c0.552,0.662,1.308,1.569,2.151,0.919l0.048-0.038l0.029-0.054c0.534-0.975,0.264-1.435-0.919-2.841   c2.324-2.106,14.488-12.586,21.352-15.824c2.779-1.504,3.587-2.031,3.735-2.132c0.321-0.143,3.625-1.603,5.122-2.123   c0.227-0.072,0.467-0.159,0.72-0.253c1.625-0.598,3.616-1.329,5.674,0.669l-0.051,0.075c0.009,0.006,0.149,0.099,0.377,0.263   c0.054,0.061,0.108,0.122,0.163,0.187l0.036,0.042l0.047,0.026c0.179,0.098,0.341,0.201,0.493,0.302   c1.156,0.905,2.885,2.429,3.551,3.905c-0.17,0.916-0.639,2.447-1.955,4.083c-0.96,1.686-2.489,3.899-4.186,8.657   c-0.317,1.091-0.797,2.863-5.069,4.698c-2.044,1.229-11.678,6.444-17.91,12.751c0.994,1.071,2.188,2.218,1.475,2.879   c-0.713,0.661-1.65-0.063-2.969-1.629c-1.003,1.064-10.592,10.481-14.122,16.408c-1.157,1.472-2.01,3.989-5.894,4.667   c-2.369,0.736-7.94,2.316-8.939,3.242c-0.784,0.542-1.832,1.075-2.784,1.176c-2.136-1.33-3.938-5.23-3.962-5.281l0,0l-0.024-0.053   l-0.041-0.038C17.865,84.982,15.931,83.1,17.547,79.73z M89.161,33.031c0,0-1.399,1.497-0.515,2.666l-2.71,14.259   c0,0,0.465,1.36-1.63,2.107c-2.959,1.747-21.281,13.553-24.647,17.869c-3.882,2.898-17.605,18.806-20.444,22.83   c-0.666,1.214-0.541,1.995-3.919,1.143c-1.971,0.235-10.462,0.739-11.822,1.205c-1.009-0.658-1.72-0.995-1.72-0.995l-3.128,2.899   c-0.152-0.064-0.477-0.311-0.871-1.246l-0.012-0.024c-1.083-2.021-1.805-3.236-1.811-3.248l-0.018-0.025   c-0.006-0.009-0.573-0.906,1.979-2.811c0.585-0.352,0.838-1.092,0.764-2.068c0.572,0.904,1.31,1.905,2.145,2.653   c-0.023-0.01-0.048-0.017-0.071-0.026c1.264,1.219,1.264,1.219,1.264,1.219s1.11,1.628,3.606,1.171   c2.294-0.532,12.873-3.438,12.873-3.438s1.937-0.2,3.62-2.823c1.811-2.343,10.308-13.935,15.708-18.276   c5.415-4.754,13.797-11.462,19.458-13.657c2.591-1.073,3.04-2.019,4.225-4.179c1.198-2.572,4.182-10.38,4.182-10.38   s1.873-3.993,0.407-5.288c-0.511-0.753-1.159-1.438-1.494-1.775c-0.497-0.885-1.271-1.745-2.048-2.475   c0.56-0.072,1.208-0.527,2.171-1.64c0.376-0.217,0.685-0.518,0.983-0.807c0.439-0.427,0.818-0.794,1.288-0.782   c0.455,0.011,1.006,0.372,1.682,1.104l0.018,0.016c1.211,1.12,2.226,2.213,2.777,2.826C90.726,31.874,89.161,33.031,89.161,33.031z   "/><path d="M76.726,2.807c-0.165-0.158-0.333-0.319-0.499-0.483c-0.494-0.606-1.028-0.906-1.588-0.894   c-0.78,0.018-1.303,0.656-1.381,0.756l-0.456,0.518c-0.526,0.373-1.917,1.305-2.461,1.438l-0.078,0.02l-0.057,0.057   c-0.185,0.179-0.37,0.259-0.569,0.246c-0.2-0.016-0.41-0.121-0.615-0.274c-0.476-0.563-0.946-1.085-1.332-1.501   c-0.053-0.067-0.101-0.125-0.14-0.168c-0.171-0.204-0.343-0.378-0.516-0.526c-0.042-0.044-0.081-0.083-0.113-0.116l-0.014,0.012   c-1.432-1.12-2.853-0.468-3.197-0.278c-0.218,0.011-0.832,0.076-2.167,0.438c-2.445,0.397-5.433,2.156-7.218,3.208   c-0.15,0.089-0.293,0.174-0.429,0.253c-5.806,2.881-12.935,8.36-16.766,11.304c-0.908,0.698-1.627,1.25-2.087,1.583   c-0.706,0.484-1.048,0.876-1.107,1.271c-0.059,0.396,0.171,0.685,0.372,0.939c0.078,0.096,0.151,0.188,0.213,0.288   c0.047,0.073,0.091,0.142,0.133,0.206c0.123,0.189,0.275,0.424,0.29,0.512c-0.012,0.011-0.039,0.032-0.096,0.062l-0.037,0.018   l-0.029,0.028c-0.093,0.086-0.126,0.096-0.125,0.096c-0.1-0.016-0.4-0.34-0.722-0.686c-0.381-0.503-0.649-0.72-0.926-0.75   c-0.269-0.029-0.456,0.129-0.605,0.256c-0.093,0.079-0.182,0.154-0.292,0.2l-0.052,0.026c-3.521,2.349-16.743,16.43-18.16,18.224   c-1.181,1.406-2.566,3.702-4.116,6.824c-1.415,2.806-0.711,4.066-0.514,4.336l0.853,2.315c0.054,0.173,0.138,0.415,0.254,0.69   l0.129,0.351c-0.258,0.283-0.938,0.995-1.822,1.666l-0.018,0.014l-0.017,0.014c-1.006,1.028-0.64,1.94-0.252,2.907   c0.089,0.223,0.181,0.453,0.264,0.694c0.719,2.28,1.13,2.718,1.331,2.833c0.456,0.425,1.583,1.201,3.129,0.373   c1.126-0.647,2.094-0.749,2.364-0.6c0.27,0.148,6.171-2.004,11.765-0.553c1.172-0.828,17.35-20.986,39.87-34.099   c0.581-0.337,2.651-1.232,3.046-1.366c1.302-0.438,2.232-1.148,3.028-3.669c1.444-3.596,2.988-7.945,2.988-7.945   s1.012-3.062,1.404-4.354c0.851-1.03,2.325-2.092,1.005-3.676C78.692,4.696,77.737,3.775,76.726,2.807z M9.803,50.003l-0.021-0.054   l-0.034-0.04C9.738,49.9,8.931,48.9,10.306,46.173c1.531-3.082,2.89-5.339,4.048-6.716c1.411-1.788,14.486-15.721,18.008-18.092   c0.183-0.081,0.313-0.192,0.421-0.283c0.054-0.047,0.136-0.115,0.164-0.12c0.006,0,0.139,0.013,0.534,0.533l0.017,0.021   c0.737,0.796,1.081,1.165,1.651,0.66c0.102-0.055,0.302-0.179,0.362-0.408c0.08-0.298-0.098-0.571-0.367-0.986   c-0.041-0.062-0.084-0.129-0.127-0.196c-0.078-0.127-0.165-0.236-0.249-0.343c-0.171-0.214-0.274-0.352-0.253-0.487   c0.022-0.146,0.188-0.419,0.864-0.881c0.475-0.343,1.195-0.897,2.108-1.599c3.816-2.934,10.921-8.393,16.678-11.249l0.018-0.008   c0.138-0.081,0.284-0.168,0.44-0.26c1.753-1.032,4.688-2.762,7.028-3.138l0.03-0.006c1.573-0.428,2.096-0.425,2.098-0.425   l0.094,0.004l0.077-0.05c0.061-0.04,1.354-0.85,2.7,0.29c0.195,0.205,0.397,0.419,0.602,0.639c0.051,0.064,0.104,0.137,0.163,0.215   c0.308,0.401,0.707,0.926,1.168,1.297c0.663,0.788,1.271,1.574,1.701,2.234c-0.124,0.722-0.952,1.852-3.734,4.965   c-0.827,1.829-3.548,6.34-3.548,6.34s0.143,1.729-4.052,3.359c-3.594,2.136-12.464,7.171-16.39,10.811   c0.728,0.785,2.401,2.021,1.204,2.733c-0.647,0.732-0.929,0.859-2.634-1.409c-1.278,1.054-9.468,8.112-14.253,14.405   c-0.947,1.41-1.396,2.357-4.532,3.272c-1.67,0.487-4.591,1.202-5.931,2.047c-0.966,0.609-2.514,1.48-3.683,1.727   c-0.103-0.03-0.204-0.069-0.305-0.121c-0.745-0.386-1.239-1.274-1.521-1.949l-0.223-0.605c-0.048-0.149-0.071-0.242-0.072-0.246   l-0.018,0.003L9.803,50.003z M10.072,61.252c0.036-0.023,0.069-0.034,0.102-0.039c-0.03,0.022-0.059,0.042-0.087,0.061   L10.072,61.252z M75.449,7.783c0,0-1.738,0.418-0.471,1.498c0,0,0.041,0.76-0.745,1.487c-0.251,1.161-3.325,9.586-3.325,9.586   s-0.23,0.609,0.069,1.793c-0.107,1.029-2.318,1.221-3.598,2.273c-1.484,0.977-10.899,5.855-21.647,15.021   c-3.763,2.957-13.369,11.064-18.46,18.171c0,0-0.948,1.411-2.446,0.941c-1.446,0.014-9.522,0.465-9.522,0.465   s-1.391,0.36-1.909-0.485c-1.115,1.126-2.465,2.14-3.161,2.638c-0.127-0.151-0.457-0.678-1.016-2.454   c-0.09-0.262-0.186-0.5-0.278-0.729c-0.378-0.946-0.609-1.519,0.114-2.266c0.809-0.614,1.441-1.251,1.768-1.599   c0.325,0.532,0.765,1.049,1.337,1.345c0.035,0.018,0.071,0.032,0.107,0.049c0.603,0.445,0.605,0.448,0.605,0.448   s1.083,2.314,3.666,1.378c2.646-0.726,9.888-2.793,9.888-2.793s1.074,0.73,4.181-3.078c2.88-3.334,15.933-18.749,30.297-25.161   c2.521-1.145,4.047-1.362,5.914-5.216c1.754-2.688,5.409-10.059,5.409-10.059s1.041-2.025-0.756-3.679   c-0.087-0.093-0.244-0.233-0.419-0.379c-0.328-0.598-0.807-1.271-1.328-1.932c0.301-0.009,0.58-0.13,0.835-0.36   c0.797-0.244,2.423-1.393,2.61-1.527l0.027-0.02l0.509-0.574l0.016-0.02c0.003-0.005,0.396-0.522,0.937-0.533   c0.371-0.006,0.75,0.227,1.126,0.69l0.011,0.013l0.012,0.011c0.172,0.171,0.346,0.338,0.517,0.502   c0.823,0.789,1.555,1.49,1.676,2.244C77.313,6.417,75.449,7.783,75.449,7.783z"/></g><text x="0" y="115" fill="#000000" font-size="5px" font-weight="bold" font-family="'Helvetica Neue', Helvetica, Arial-Unicode, Arial, Sans-serif">Created by Ves Andreev</text><text x="0" y="120" fill="#000000" font-size="5px" font-weight="bold" font-family="'Helvetica Neue', Helvetica, Arial-Unicode, Arial, Sans-serif">from the Noun Project</text></svg>