<svg xmlns="http://www.w3.org/2000/svg" data-name="Layer 1" viewBox="0 0 100 125" x="0px" y="0px"><path d="M50,26.32c8.33,0,16.76-2.13,16.76-6.19S58.33,14,50,14s-16.76,2.12-16.76,6.18S41.67,26.32,50,26.32ZM39.15,22.87a12.67,12.67,0,0,1-1.25-.47,9,9,0,0,1,1.25-.67Zm4,.95c-.71-.12-1.38-.25-2-.4V21c.61-.19,1.28-.36,2-.51Zm3.95.45c-.69,0-1.36-.1-2-.18V20.17c.64-.09,1.31-.16,2-.21Zm4,.08-1,0-1,0V19.86l1,0,1,0Zm4-.26c-.64.08-1.31.14-2,.18V20c.7.05,1.36.12,2,.21Zm3.95-.67c-.62.15-1.29.28-2,.4V20.5c.72.15,1.39.32,2,.51Zm2-.55V21.73a9,9,0,0,1,1.25.67A12.67,12.67,0,0,1,60.85,22.87ZM50,15.9c9,0,14.81,2.5,14.81,4.23,0,.39-.31.81-.86,1.24-2.41-2.1-7.81-3.48-14-3.48s-11.54,1.38-14,3.48c-.55-.43-.86-.85-.86-1.24C35.19,18.4,41,15.9,50,15.9Z"/><path d="M50,10c-14.34,0-25.59,4.38-25.75,10L16,70.52a7.43,7.43,0,0,0,1.5,5.89c2.41,3,7.25,5.44,13.48,7.09.32,1.58,1.76,3.5,6.29,4.89A45.38,45.38,0,0,0,50,90c9,0,18.15-2,19.06-6.5,6.23-1.65,11.07-4.1,13.48-7.09A7.43,7.43,0,0,0,84,70.52L75.75,20C75.58,14.38,64.34,10,50,10ZM50,12c14,0,23.81,4.31,23.81,8.18S64,28.31,50,28.31,26.19,24,26.19,20.13,36,12,50,12Zm8.17,17.81c1-.12,1.9-.27,2.8-.43l4,53.12c-1.4.27-2.87.51-4.37.71Zm.45,53.62c-1.45.15-2.93.27-4.44.34l-.8-53.54q1.45-.08,2.85-.21Zm-6.39.42c-.74,0-1.48,0-2.23,0s-1.49,0-2.23,0l.8-53.55h2.86ZM43.77,30q1.4.13,2.85.21l-.8,53.54c-1.51-.07-3-.19-4.44-.34ZM39.44,83.16c-1.5-.2-3-.44-4.37-.71l4-53.12c.91.16,1.84.31,2.8.43ZM19,75.19a5.5,5.5,0,0,1-1.09-4.35L25.65,23.5a11.17,11.17,0,0,0,2.37,2L21.09,77.15A11.83,11.83,0,0,1,19,75.19Zm3.93,3.12,6.94-51.8a26.62,26.62,0,0,0,2.61,1.1L27,80.2A28.11,28.11,0,0,1,22.91,78.31Zm6,2.55,5.49-52.63c.87.26,1.79.5,2.74.71L33.15,82C31.64,81.68,30.21,81.29,28.87,80.86ZM50,88.05c-8.14,0-14.77-1.66-16.64-4A78.5,78.5,0,0,0,50,85.79a78.5,78.5,0,0,0,16.64-1.71C64.77,86.39,58.14,88.05,50,88.05Zm16.85-6L62.9,28.94c1-.21,1.87-.45,2.74-.71l5.49,52.63C69.79,81.29,68.36,81.68,66.85,82ZM73,80.2,67.54,27.61a26.62,26.62,0,0,0,2.61-1.1l6.94,51.8A28.11,28.11,0,0,1,73,80.2Zm8-5a11.83,11.83,0,0,1-2.11,2L72,25.49a11.17,11.17,0,0,0,2.37-2l7.76,47.34A5.5,5.5,0,0,1,81,75.19Z"/><text x="0" y="115" fill="#000000" font-size="5px" font-weight="bold" font-family="'Helvetica Neue', Helvetica, Arial-Unicode, Arial, Sans-serif">Created by Uswa KDT</text><text x="0" y="120" fill="#000000" font-size="5px" font-weight="bold" font-family="'Helvetica Neue', Helvetica, Arial-Unicode, Arial, Sans-serif">from the Noun Project</text></svg>